<?xml version="1.0" encoding="UTF-8"?>
<svg id="_图层_2" data-name="图层 2" xmlns="http://www.w3.org/2000/svg" viewBox="0 0 96.73 96.73">
  <defs>
    <style>
      .cls-1 {
        fill: #f498a4;
      }

      .cls-2 {
        fill: none;
      }
    </style>
  </defs>
  <g id="_图层_12" data-name="图层 12">
    <g>
      <rect class="cls-2" width="96.73" height="96.73"/>
      <g>
        <path class="cls-1" d="M72.16,38.19c-1.63-3.38-4.35-6.16-7.72-7.63-1.93,2.82-4.67,5.23-7.75,6.7,1.18,3,.79,6.75-.04,9.44-.13,.41-.5,.7-.94,.7-.09,0-.18,0-.27,0-5.51,0-10.7-3.26-13.15-8.22-5.08-.68-9.94-2.91-13.69-6.26-1.67,1.45-3.06,3.24-4.04,5.27-5.35,11.09,.81,23.18,8.11,31.7,3.43,4,7.44,7.48,11.84,10.38,.01,0,.02,0,.03,0,1.4,.37,2.83,.5,4.28,.44,1.24-.05,2.46-.28,3.65-.64,4.29-2.86,8.2-6.28,11.56-10.19,7.31-8.52,13.47-20.61,8.11-31.7Zm-31.83,20.19c-.54,.32-1.15,.48-1.74,.48-.81,0-1.6-.29-2.18-.86-1.04-1.02-1.1-2.62-.14-4.28,.69-1.2,1.76-2.05,2.69-2.8,.3-.24,.72-.29,1.06-.13,.81,.38,1.97,3.96,1.98,4.24,.03,1.47-.57,2.69-1.67,3.35Zm10.34,15.41c-.64,.59-1.47,.9-2.29,.9-.57,0-1.14-.15-1.62-.46-1.23-.79-1.61-2.34-1.02-4.16,.43-1.32,1.29-2.37,2.05-3.3,.24-.3,.64-.43,1.02-.34,.88,.21,2.74,3.47,2.81,3.74,.34,1.43,0,2.75-.94,3.62Zm10.04-15.79c-.58,.57-1.37,.86-2.18,.86-.6,0-1.2-.16-1.74-.48-1.09-.66-1.7-1.88-1.67-3.35,0-.28,1.16-3.86,1.97-4.24,.34-.16,.76-.11,1.06,.12,.94,.75,2,1.6,2.7,2.81,.95,1.65,.9,3.25-.14,4.28Z"/>
        <path class="cls-1" d="M28.01,29.76c.19,.04,.37,.12,.51,.28,3.7,3.97,9,6.6,14.55,7.22,.35,.04,.66,.26,.8,.59,1.95,4.39,6.33,7.35,11.06,7.54,.62-2.45,.83-5.81-.46-8.15-.14-.25-.16-.55-.07-.82,.1-.27,.3-.48,.57-.59,3.41-1.38,6.49-4.15,8.4-7.34,1.58-3.39,2.11-7.29,2.08-11,0-1.04-.95-1.62-1.9-1.45-5.93,1.08-10.91,4.62-14.02,9.45-.6-2.62-1.53-5.16-2.81-7.57-.58-1.09-1.63-1.77-2.82-1.81-1.27-.04-2.52,.63-3.2,1.72-.66,1.05-.7,2.35-.11,3.48,.94,1.78,1.64,3.67,2.09,5.64-4.2-2.87-9.67-3.74-14.68-1.9-.79,.29-1.24,1-1.05,1.85,.22,1,.58,1.96,1.05,2.87Z"/>
      </g>
    </g>
  </g>
</svg>