<?xml version="1.0" encoding="UTF-8"?>
<svg id="_图层_2" data-name="图层 2" xmlns="http://www.w3.org/2000/svg" viewBox="0 0 96.73 96.73">
  <defs>
    <style>
      .cls-1 {
        fill: #f498a4;
      }

      .cls-2 {
        fill: none;
      }
    </style>
  </defs>
  <g id="_图层_12" data-name="图层 12">
    <g>
      <rect class="cls-2" width="96.73" height="96.73"/>
      <g>
        <path class="cls-1" d="M33.57,51.82c2.64-1.02,5.36-2.06,7.56-3.08-.88-1.77-1.67-4.87-2.19-8.37-.03,0-.06,0-.1,0-3.94-.78-9-.75-12.91,.09-.07,.02-.14,.02-.21,.02-.46,0-.88-.32-.98-.79-.12-.54,.23-1.07,.77-1.19,3.97-.85,9.05-.91,13.15-.19-.34-2.89-.48-5.92-.35-8.6l-19.4-8.1c-.55-.23-1.17-.2-1.7,.07-.53,.28-.9,.77-1.03,1.36-2.39,11.23-2.9,22.71-1.47,33.2,.08,.58,.4,1.09,.89,1.41,.33,.21,.71,.32,1.09,.32,.19,0,.38-.03,.56-.08,2.66-.78,5.33-1.68,7.97-2.63,2.37-1.14,5.4-2.31,8.34-3.45Z"/>
        <path class="cls-1" d="M46.55,50.16h-3.74c-2.39,1.17-5.5,2.37-8.51,3.52-1.98,.76-4,1.54-5.82,2.31l-5.28,14.25c-.29,.79-.06,1.67,.58,2.21,.64,.55,1.55,.63,2.28,.23l6.36-3.55,3.96,5.33c.38,.51,.98,.81,1.61,.81,.1,0,.2,0,.3-.02,.73-.11,1.34-.62,1.59-1.31l8.35-23.77h-1.66Z"/>
        <path class="cls-1" d="M43.07,48.16h10.58c1.54-2.43,3.14-11.99,2.74-18.76h-16.07c-.4,6.77,1.2,16.33,2.74,18.76Z"/>
        <path class="cls-1" d="M80.54,23.05c-.12-.58-.5-1.08-1.03-1.36-.53-.28-1.15-.3-1.7-.07l-19.4,8.1c.13,2.68-.02,5.7-.35,8.6,4.1-.72,9.18-.66,13.15,.19,.54,.12,.88,.65,.77,1.19-.1,.47-.51,.79-.98,.79-.07,0-.14,0-.21-.02-3.9-.84-8.97-.87-12.91-.09-.03,0-.06,0-.1,0-.53,3.5-1.31,6.6-2.19,8.37,2.19,1.01,4.91,2.06,7.56,3.08,2.95,1.13,5.98,2.3,8.34,3.45,2.65,.95,5.31,1.85,7.97,2.63,.18,.05,.37,.08,.56,.08,.38,0,.76-.11,1.09-.32,.49-.32,.81-.83,.89-1.41,1.42-10.49,.92-21.97-1.47-33.2Z"/>
        <path class="cls-1" d="M68.26,56c-1.81-.77-3.83-1.55-5.82-2.31-3.01-1.16-6.13-2.36-8.51-3.52h-5.4l8.35,23.77c.25,.7,.86,1.2,1.59,1.31,.1,.02,.2,.02,.3,.02,.63,0,1.22-.29,1.61-.81l3.96-5.33,6.36,3.55c.73,.41,1.64,.32,2.28-.23,.64-.54,.87-1.43,.58-2.21l-5.28-14.25Z"/>
      </g>
    </g>
  </g>
</svg>