<?xml version="1.0" encoding="utf-8"?>
<!-- Generator: Adobe Illustrator 27.0.0, SVG Export Plug-In . SVG Version: 6.00 Build 0)  -->
<svg version="1.1" id="_图层_3" xmlns="http://www.w3.org/2000/svg" xmlns:xlink="http://www.w3.org/1999/xlink" x="0px" y="0px"
	 viewBox="0 0 469.2 374.6" style="enable-background:new 0 0 469.2 374.6;" xml:space="preserve">
<path d="M168.2,57.6l240.7,139c0.8,0.5,1.6,0.7,2.5,0.7s1.7-0.2,2.5-0.7l8.8-5.1c1.5-0.9,2.5-2.5,2.5-4.3s-1-3.4-2.5-4.3L173.1,38.8
	c-1.5-0.9-3.5-0.9-5,0s-2.5,2.5-2.5,4.3v10.2C165.6,55.1,166.6,56.8,168.2,57.6L168.2,57.6z"/>
<path d="M173.2,309.7c-1.5-0.9-3.5-0.9-5,0s-2.5,2.5-2.5,4.3v17.2c0,1.8,1,3.4,2.5,4.3c0.8,0.5,1.6,0.7,2.5,0.7s1.7-0.2,2.5-0.7
	l14.9-8.6c1.5-0.9,2.5-2.5,2.5-4.3s-1-3.4-2.5-4.3L173.2,309.7z"/>
<path d="M203.4,317.4c0.9,0,1.7-0.2,2.5-0.7l6.2-3.6c1.5-0.9,2.5-2.5,2.5-4.3s-1-3.4-2.5-4.3l-39-22.5c-1.5-0.9-3.5-0.9-5,0
	s-2.5,2.5-2.5,4.3v7.2c0,1.8,1,3.4,2.5,4.3l32.8,18.9C201.7,317.1,202.6,317.4,203.4,317.4L203.4,317.4z"/>
<path d="M466.7,182.9L151.2,0.7c-1.5-0.9-3.5-0.9-5,0s-2.5,2.5-2.5,4.3v57.6L36.4,0.7c-1.5-0.9-3.5-0.9-5,0S28.9,3.2,28.9,5v68.2
	C11.2,82.5,0,100.9,0,121s11.2,38.5,28.9,47.7v65.2l-4.6,7c-0.5,0.8-0.8,1.8-0.8,2.8v17.6c0,2.8,2.2,5,5,5H29v103.1
	c0,1.8,1,3.4,2.5,4.3c0.8,0.5,1.6,0.7,2.5,0.7s1.7-0.2,2.5-0.7l107.3-61.9v57.6c0,1.8,1,3.4,2.5,4.3c0.8,0.5,1.6,0.7,2.5,0.7
	s1.7-0.2,2.5-0.7l83.4-48.1c2.4-1.4,3.2-4.4,1.8-6.8s-4.4-3.2-6.8-1.8l-75.9,43.8v-94c0-2.8-2.2-5-5-5s-5,2.2-5,5v8.2L61,322.8
	v-56.3h0.5c2.8,0,5-2.2,5-5v-17.6c0-1-0.3-1.9-0.8-2.8l-4.6-7v-29.4l131.7,76.1c0.1,0,0.1,0.1,0.2,0.1l161,93l0,0
	c0.1,0.1,0.3,0.2,0.4,0.2c0,0,0.1,0.1,0.2,0.1s0.1,0,0.2,0.1c0.5,0.2,1.1,0.3,1.7,0.3l0,0l0,0c0.6,0,1.2-0.1,1.8-0.3h0.1
	c0.1,0,0.1-0.1,0.2-0.1c0.1-0.1,0.3-0.1,0.4-0.2l0,0l92.8-53.5l0,0l0,0l0,0c0.2-0.1,0.5-0.3,0.7-0.5c0,0,0.1-0.1,0.2-0.1
	c0.2-0.2,0.4-0.4,0.6-0.6c0,0,0-0.1,0.1-0.1c0.1-0.1,0.2-0.3,0.3-0.4c0,0,0-0.1,0.1-0.2c0.1-0.2,0.2-0.3,0.2-0.5
	c0.1-0.1,0.1-0.3,0.2-0.4c0-0.2,0.1-0.3,0.1-0.5s0.1-0.3,0.1-0.5s0-0.3,0-0.5s0-0.3,0-0.5s0-0.3-0.1-0.5s-0.1-0.3-0.1-0.5
	s-0.1-0.3-0.2-0.4c-0.1-0.2-0.1-0.3-0.2-0.5c0,0,0-0.1-0.1-0.2c0-0.1-0.1-0.2-0.2-0.2c-0.1-0.2-0.2-0.3-0.3-0.4
	c-0.1-0.1-0.2-0.2-0.3-0.4c-0.1-0.1-0.2-0.2-0.3-0.3c-0.1-0.1-0.3-0.2-0.5-0.3c-0.1,0-0.1-0.1-0.2-0.2l-96.3-55.6l111.5-64.3
	c1.5-0.9,2.5-2.5,2.5-4.3S468.3,183.8,466.7,182.9L466.7,182.9z M143.7,286.4v13.8L38.9,360.7v-47h12v17.5c0,1.8,1,3.4,2.5,4.3
	c0.8,0.5,1.6,0.7,2.5,0.7s1.7-0.2,2.5-0.7L143.7,286.4z M143.7,240.8l-77.8-44.9l6.5-3.8l71.2,41.1L143.7,240.8L143.7,240.8z
	 M143.7,221.7l-61.2-35.4l6.5-3.8l54.7,31.6V221.7L143.7,221.7z M143.7,202.6L99,176.8l44.7-25.8V202.6z M143.7,139.5l-82.8,47.8
	v-12.8c26.7-3.4,47-26,47-53.5s-20.3-50.1-47-53.5V51.8l82.8,47.8V139.5L143.7,139.5z M60.9,164.3V77.6c21.1,3.3,37,21.5,37,43.4
	S82,161,60.9,164.3z M165.7,253.5l-12-6.9V105.3l12,6.9V253.5z M186.4,199.4c1.9-1.9,4.1-3.3,6.5-4.3c-2.6,0.5-5.2,0.5-7.8,0
	c-4.2-0.8-8.1-3.4-10.1-7.2s-1.5-8.9,1.6-11.9c-0.5-4.2,2.3-8.5,6.2-10.2c3.9-1.8,8.6-1.2,12.4,0.7c1.7,0.9,3.2,2,4.5,3.3
	c-0.8-1.7-1.3-3.5-1.6-5.4c-0.6-4.2,0.5-8.8,3.4-11.9c3-3.1,7.9-4.3,11.7-2.5c3.8-1.9,8.8-0.6,11.7,2.5c3,3.1,4,7.7,3.4,11.9
	c-0.4,2.6-1.3,5.1-2.6,7.4c1.8-1.9,3.9-3.6,6.2-4.7c3.9-1.9,8.5-2.2,12.4-0.3c3.8,1.9,6.5,6.2,5.9,10.4c3,3.1,3.3,8.2,1.2,11.9
	s-6.1,6.2-10.3,6.9c-2.6,0.4-5.2,0.3-7.8-0.3c2.4,1.1,4.6,2.6,6.4,4.5c2.9,3.1,4.7,7.5,4.1,11.7c-0.6,4.2-3.9,8.1-8.1,8.8
	c-2,3.8-6.8,5.6-11,4.8s-7.7-3.9-9.7-7.7c-1.2-2.3-1.9-4.9-2.1-7.5c-0.3,2.6-1.1,5.2-2.4,7.5c-2.1,3.7-5.7,6.7-9.9,7.4
	s-8.9-1.3-10.8-5.1c-4.2-0.8-7.4-4.8-7.9-9C181.5,206.7,183.4,202.4,186.4,199.4L186.4,199.4z M183.1,263.6l124.8-72.1
	c1.5-0.9,2.5-2.5,2.5-4.3s-1-3.4-2.5-4.3L58.4,38.8c-1.5-0.9-3.5-0.9-5,0s-2.5,2.5-2.5,4.3v192.3l0,0l0,0c0,0.1,0,0.2,0,0.3
	c0,0.2,0,0.5,0.1,0.7c0,0.2,0.1,0.3,0.1,0.5s0.1,0.3,0.1,0.5c0.1,0.2,0.2,0.4,0.3,0.6c0,0.1,0.1,0.2,0.1,0.2l0,0l0,0l4.6,7v11.1
	H33.4v-11.1l4.6-7l0,0l0,0c0-0.1,0.1-0.2,0.1-0.2c0.1-0.2,0.2-0.4,0.3-0.6c0.1-0.2,0.1-0.3,0.1-0.5s0.1-0.3,0.1-0.5s0.1-0.5,0.1-0.7
	c0-0.1,0-0.2,0-0.3l0,0l0,0V13.6l300.6,173.5l-66.5,38.4c0,0,0,0-0.1,0L195,270.4L183.1,263.6L183.1,263.6z M439.1,315.8l-82.8,47.8
	l-43.1-24.9l82.8-47.8L439.1,315.8L439.1,315.8z M367,274.2l-83.1,47.6l-78.8-45.5l13.7-7.9h56.6c2.8,0,5-2.2,5-5v-30.6l7.5-4.3
	l32.9,19l0,0L367,274.2L367,274.2z M345.3,250.1l-12-6.9l65.2-37.6l0,0l0,0l0,0c0.2-0.1,0.5-0.3,0.7-0.5c0,0,0.1-0.1,0.2-0.1
	c0.2-0.2,0.4-0.4,0.6-0.6c0,0,0-0.1,0.1-0.1c0.1-0.1,0.2-0.3,0.3-0.4c0,0,0-0.1,0.1-0.1c0.1-0.2,0.2-0.3,0.2-0.5
	c0.1-0.1,0.1-0.3,0.2-0.4c0-0.1,0.1-0.3,0.1-0.5s0.1-0.3,0.1-0.5s0-0.3,0-0.5s0-0.3,0-0.5s0-0.3-0.1-0.5s-0.1-0.3-0.1-0.5
	c0-0.1-0.1-0.3-0.2-0.4c-0.1-0.2-0.1-0.3-0.2-0.5c0,0,0-0.1-0.1-0.1c0-0.1-0.1-0.1-0.2-0.2c-0.1-0.1-0.2-0.3-0.3-0.4
	c-0.1-0.1-0.2-0.2-0.3-0.4c-0.1-0.1-0.2-0.2-0.3-0.3c-0.1-0.1-0.3-0.2-0.5-0.3c-0.1,0-0.1-0.1-0.2-0.2L173.2,66.8
	c-0.1,0-0.2-0.1-0.3-0.1c-0.2-0.1-0.3-0.2-0.5-0.2c-0.1-0.1-0.3-0.1-0.5-0.1s-0.3-0.1-0.5-0.1s-0.4,0-0.5,0s-0.2,0-0.3,0
	s-0.1,0-0.2,0c-0.2,0-0.4,0-0.5,0s-0.3,0-0.5,0.1c-0.2,0-0.3,0.1-0.5,0.1s-0.3,0.1-0.5,0.2c-0.1,0.1-0.3,0.1-0.4,0.2
	c-0.1,0.1-0.3,0.2-0.4,0.2s-0.2,0.2-0.4,0.3c-0.1,0.1-0.2,0.2-0.4,0.3c-0.1,0.1-0.2,0.2-0.3,0.4c-0.1,0.1-0.2,0.3-0.3,0.4l-0.1,0.1
	c0,0.1-0.1,0.2-0.1,0.3c-0.1,0.2-0.2,0.3-0.2,0.5c-0.1,0.1-0.1,0.3-0.1,0.5s-0.1,0.3-0.1,0.5s0,0.4,0,0.5s0,0.2,0,0.3v4.2l-12-6.9
	V13.7l300.6,173.5L345.3,250.1L345.3,250.1z"/>
</svg>
