<?xml version="1.0" encoding="utf-8"?>
<!-- Generator: Adobe Illustrator 27.0.0, SVG Export Plug-In . SVG Version: 6.00 Build 0)  -->
<svg version="1.1" id="_图层_2" xmlns="http://www.w3.org/2000/svg" xmlns:xlink="http://www.w3.org/1999/xlink" x="0px" y="0px"
	 viewBox="0 0 369.2 138.3" style="enable-background:new 0 0 369.2 138.3;" xml:space="preserve">
<style type="text/css">
	.st0{fill:#FFF8F0;}
</style>
<g>
	<path class="st0" d="M368.5,40.8L368.5,40.8L298.2,0.1c-0.3-0.2-0.8-0.2-1.1,0c-0.3,0.2-0.6,0.6-0.6,1V14L272.5,0.1
		c-0.3-0.2-0.8-0.2-1.1,0c-0.3,0.2-0.6,0.6-0.6,1v15.2c-4,2.1-6.5,6.2-6.5,10.7s2.5,8.6,6.5,10.6v14.6l-1,1.6
		c-0.1,0.2-0.2,0.4-0.2,0.6v3.9c0,0.6,0.5,1.1,1.1,1.1h0.1v23c0,0.4,0.2,0.8,0.6,1c0.2,0.1,0.4,0.2,0.6,0.2s0.4,0,0.6-0.2l23.9-13.8
		v12.9c0,0.4,0.2,0.8,0.6,1c0.2,0.1,0.4,0.2,0.6,0.2s0.4,0,0.6-0.2l18.6-10.7c0.5-0.3,0.7-1,0.4-1.5c-0.3-0.5-1-0.7-1.5-0.4
		l-16.9,9.8v-21c0-0.6-0.5-1.1-1.1-1.1s-1.1,0.5-1.1,1.1v1.8L278,72V59.5h0.1c0.6,0,1.1-0.5,1.1-1.1v-3.9c0-0.2-0.1-0.4-0.2-0.6
		l-1-1.6v-6.6l29.4,17c0,0,0,0,0,0l35.9,20.8c0,0,0.1,0,0.1,0c0,0,0,0,0,0s0,0,0,0c0.1,0,0.2,0.1,0.4,0.1s0.3,0,0.4-0.1h0
		c0,0,0,0,0,0c0,0,0.1,0,0.1,0l20.7-11.9c0,0,0.1-0.1,0.2-0.1c0,0,0,0,0,0l0.1-0.1c0,0,0,0,0,0c0,0,0-0.1,0.1-0.1c0,0,0,0,0,0
		c0,0,0-0.1,0-0.1c0,0,0-0.1,0-0.1c0,0,0-0.1,0-0.1c0,0,0-0.1,0-0.1v-0.2c0,0,0-0.1,0-0.1c0,0,0-0.1,0-0.1s0-0.1,0-0.1
		c0,0,0-0.1,0-0.1c0,0,0,0,0,0c0,0,0,0,0,0c0,0,0-0.1-0.1-0.1c0,0,0,0-0.1-0.1l-0.1-0.1c0,0-0.1,0-0.1-0.1c0,0,0,0,0,0l-21.5-12.4
		l24.9-14.3c0.3-0.2,0.6-0.6,0.6-1S368.9,41,368.5,40.8z M296.5,63.9V67l-23.4,13.5V70h2.7v3.9c0,0.4,0.2,0.8,0.6,1
		c0.2,0.1,0.4,0.2,0.6,0.2s0.4,0,0.6-0.2L296.5,63.9z M278,41.8v-2.9c6-0.8,10.5-5.8,10.5-11.9c0-6.1-4.5-11.2-10.5-11.9v-3.5
		l18.5,10.7v8.9L278,41.8z M278,36.7V17.3c4.7,0.7,8.3,4.8,8.3,9.7C286.2,31.9,282.7,35.9,278,36.7z M286.5,39.4l10-5.8v11.5v0
		L286.5,39.4z M296.5,47.8v1.7l-13.7-7.9l1.5-0.9L296.5,47.8z M296.5,53.7l-17.4-10l1.5-0.8l15.9,9.2L296.5,53.7L296.5,53.7z
		 M301.4,56.6L301.4,56.6l-2.7-1.5V23.5l2.7,1.5V56.6z M307.4,43.5c-0.6,0.1-1.2,0.1-1.7,0c-0.9-0.2-1.8-0.8-2.2-1.6
		c-0.4-0.9-0.3-2,0.4-2.7c-0.1-0.9,0.5-1.9,1.4-2.3c0.9-0.4,1.9-0.3,2.8,0.2c0.4,0.2,0.7,0.5,1,0.7c-0.2-0.4-0.3-0.8-0.4-1.2
		c-0.1-0.9,0.1-2,0.8-2.7c0.7-0.7,1.8-1,2.6-0.6c0.8-0.4,2-0.1,2.6,0.6c0.7,0.7,0.9,1.7,0.8,2.7c-0.1,0.6-0.3,1.1-0.6,1.7
		c0.4-0.4,0.9-0.8,1.4-1.1c0.9-0.4,1.9-0.5,2.8-0.1c0.8,0.4,1.5,1.4,1.3,2.3c0.7,0.7,0.7,1.8,0.3,2.7c-0.5,0.8-1.4,1.4-2.3,1.5
		c-0.6,0.1-1.2,0.1-1.7-0.1c0.5,0.2,1,0.6,1.4,1c0.7,0.7,1,1.7,0.9,2.6c-0.1,0.9-0.9,1.8-1.8,2c-0.5,0.9-1.5,1.2-2.5,1.1
		c-0.9-0.2-1.7-0.9-2.2-1.7c-0.3-0.5-0.4-1.1-0.5-1.7c-0.1,0.6-0.2,1.2-0.5,1.7c-0.5,0.8-1.3,1.5-2.2,1.6c-0.9,0.2-2-0.3-2.4-1.1
		c-0.9-0.2-1.6-1.1-1.8-2c-0.1-1,0.3-1.9,1-2.6v0C306.4,44.1,306.9,43.8,307.4,43.5z M305.2,58.8L305.2,58.8l27.9-16.1
		c0.3-0.2,0.6-0.6,0.6-1c0-0.4-0.2-0.8-0.6-1L277.4,8.7c-0.3-0.2-0.8-0.2-1.1,0c-0.3,0.2-0.6,0.6-0.6,1v42.9v0.1c0,0,0,0.1,0,0.2
		c0,0,0,0.1,0,0.1c0,0,0,0.1,0,0.1c0,0,0,0.1,0.1,0.1c0,0,0,0,0,0l1,1.6v2.5h-5.1v-2.5l1-1.6l0,0c0,0,0-0.1,0.1-0.1c0,0,0-0.1,0-0.1
		c0,0,0-0.1,0-0.1c0,0,0-0.1,0-0.2v-0.1V3l67.1,38.7l-14.8,8.6h0l-17.3,10L305.2,58.8z M362.4,70.5l-18.5,10.7l-9.6-5.6l18.5-10.7
		L362.4,70.5z M346.3,61.2L346.3,61.2l-18.6,10.6l-17.6-10.2l3.1-1.8h12.6c0.6,0,1.1-0.5,1.1-1.1V52l1.7-1l7.3,4.2L346.3,61.2z
		 M341.5,55.8L341.5,55.8l-2.7-1.5l14.5-8.4c0,0,0.1-0.1,0.2-0.1c0,0,0,0,0,0c0,0,0.1-0.1,0.1-0.1c0,0,0,0,0,0c0,0,0-0.1,0.1-0.1
		c0,0,0,0,0,0c0,0,0-0.1,0-0.1c0,0,0-0.1,0-0.1c0,0,0-0.1,0-0.1c0,0,0-0.1,0-0.1v-0.2c0,0,0-0.1,0-0.1c0,0,0-0.1,0-0.1
		c0,0,0-0.1,0-0.1c0,0,0-0.1,0-0.1c0,0,0,0,0,0c0,0,0,0,0,0c0,0,0-0.1-0.1-0.1c0,0,0,0-0.1-0.1c0,0,0,0-0.1-0.1c0,0-0.1,0-0.1-0.1
		c0,0,0,0,0,0L303,14.9c0,0,0,0-0.1,0c0,0-0.1,0-0.1,0c0,0-0.1,0-0.1,0s-0.1,0-0.1,0h-0.3c0,0-0.1,0-0.1,0c0,0-0.1,0-0.1,0
		s-0.1,0-0.1,0c0,0-0.1,0-0.1,0c0,0-0.1,0-0.1,0c0,0,0,0-0.1,0.1c0,0,0,0-0.1,0.1c0,0,0,0-0.1,0.1c0,0,0,0.1-0.1,0.1l0,0
		c0,0,0,0,0,0.1c0,0,0,0.1,0,0.1c0,0,0,0.1,0,0.1c0,0,0,0.1,0,0.1v1.1l-2.7-1.5V3.1l67.1,38.7L341.5,55.8z"/>
	<path class="st0" d="M6.6,67.6c0.9-0.7,1.7-1.4,2.5-2.1c2.8-2.5,4.8-5.2,5.9-8.2c1.1-3,2-6.2,2.5-9.8H31c0.8,0,1.6-0.3,2.2-0.8
		c0.6-0.5,0.9-1.3,0.9-2.1c0-0.8-0.3-1.5-0.9-2.1s-1.3-0.9-2.2-0.9c-0.9,0-1.6,0.3-2.2,0.9c-0.6,0.6-0.9,1.3-1,2.2h-10
		c0-1.6,0.1-3.2,0.2-4.8c0.1-1.6,0.2-3.2,0.2-4.8H31c0.8,0,1.6-0.3,2.2-0.8c0.6-0.5,0.9-1.3,0.9-2.1c0-0.8-0.3-1.5-0.9-2.1
		c-0.6-0.6-1.3-0.9-2.2-0.9c-0.9,0-1.6,0.3-2.2,0.9c-0.6,0.6-0.9,1.3-1,2.2h-9.5V21.6H37c0,6.2,0,12.5,0,18.8c0,6.3,0,12.5,0,18.8
		c0,0.8-0.1,1.5-0.3,2.3c-0.2,0.8-0.5,1.4-1,2c-0.5,0.5-1.2,0.8-2.2,0.8c-1.4,0-2.8-0.2-4.2-0.4c-1.5-0.3-2.8-0.6-4.2-0.9
		c0,0-0.1,0-0.2,0s-0.2,0-0.2,0c-0.1,0-0.2,0-0.2,0.1c0,0.2,0.1,0.4,0.4,0.7c0.3,0.3,0.4,0.5,0.5,0.6c0.8,0.8,1.8,1.6,2.9,2.5
		c1.1,0.9,2.3,1.6,3.5,2.3c1.2,0.6,2.4,0.9,3.6,0.9c2.5,0,4.4-0.5,5.8-1.4c1.4-1,2.3-2.3,2.9-3.9c0.5-1.7,0.8-3.6,0.8-5.8V18.7H10.3
		c0.1,6.4,0.2,12.8,0.2,19.2c0,3.2-0.1,6.2-0.2,9.2c-0.2,3-0.6,5.8-1.4,8.7c-0.8,2.8-2,5.6-3.9,8.4c-0.6,0.8-1.2,1.7-2,2.6
		c-0.8,0.9-1.5,1.7-2.3,2.3c-0.1,0-0.2,0.1-0.4,0.3C0.1,69.5,0,69.7,0,69.8c0,0.2,0.2,0.4,0.5,0.4s0.9-0.1,1.7-0.4
		c0.8-0.3,1.3-0.5,1.6-0.6C4.8,68.8,5.7,68.2,6.6,67.6z"/>
	<path class="st0" d="M120.8,67.8L120.8,67.8c0-0.8-0.3-1.6-1-2.4s-1.5-1.1-2.4-1.1c-0.7,0-1.3,0.2-2,0.6c-0.7,0.4-1.2,0.8-1.5,1.4
		c-1.2-1.7-2.2-3.6-3.1-5.5c-0.9-2-1.7-3.9-2.3-5.8c1.5-2.3,2.8-4.8,4.2-7.2c1.3-2.5,2.4-5,3.3-7.7c0.2-0.8,0.5-1.5,0.6-2.2
		c0.1-0.7,0.1-1.1,0-1.2c-0.1-0.1-0.3-0.2-0.5-0.3l-7.5-3.1c-0.3,2.1-0.8,4.3-1.3,6.4c-0.5,2.1-1.2,4.2-1.9,6.2h-0.1
		c-0.7-2.8-1.2-5.6-1.7-8.4c-0.5-2.8-0.8-5.6-1-8.5h13.1c0.9,0,1.7-0.3,2.5-0.9c0.7-0.6,1.1-1.4,1.1-2.3c0-1.1-0.4-2-1.2-2.7
		c-0.8-0.7-1.7-1-2.7-1c-1.2,0-2.2,0.4-2.8,1.2s-1,1.8-1.1,3h-8.9c-0.2-2-0.3-4.1-0.3-6.1c0-2-0.1-4.1-0.2-6.1h-8.2
		c0.1,2,0.3,4.1,0.4,6.1c0.2,2,0.4,4,0.6,6.1H79.8c0,2.9,0,5.8,0,8.7c0,2.9,0,5.8,0,8.7c0,1.7-0.1,3.5-0.2,5.2
		c-0.1,1.8-0.4,3.5-0.7,5.2c-0.5,2.8-1.4,5.5-2.5,8s-2.7,4.9-4.7,7c-0.1,0.1-0.2,0.2-0.3,0.3c-0.1,0.1-0.2,0.2-0.2,0.4
		c0,0.3,0.2,0.5,0.6,0.5c0.4,0,1-0.2,1.6-0.6c0.7-0.4,1.2-0.7,1.5-0.8c1.5-0.9,3-2.1,4.4-3.5c1.4-1.4,2.5-2.9,3.6-4.6
		c1-1.7,1.8-3.4,2.3-5c0.3,0.5,0.7,1.1,1.2,1.8c0.5,0.7,1,1.3,1.6,1.9c0.6,0.5,1.2,0.8,1.9,0.8c1.2,0,2.1-0.3,2.9-0.9
		s1.4-1.4,1.8-2.4c0.5-1,0.8-2,1.1-3c0.3-1,0.4-2,0.6-3c0.2-1.4,0.3-2.9,0.4-4.3c0-1.4,0.1-3.3,0.1-5.6c0.6,2.9,1.2,5.4,1.9,7.4
		c0.6,2,1.4,4,2.3,5.9c-1.5,2.6-3.4,5.1-5.7,7.4c-2.2,2.3-4.6,4.2-7.3,5.8c-0.2,0.1-0.3,0.2-0.5,0.3s-0.3,0.3-0.3,0.5
		c0,0.3,0.2,0.5,0.6,0.5c0.5,0,1-0.1,1.5-0.2s1-0.3,1.4-0.4c2.6-0.8,5-1.9,7.2-3.3c2.2-1.3,4.3-3,6.1-5.1c0.6,1,1.3,2.1,2.3,3.4
		c0.9,1.3,2,2.5,3.1,3.7c1.2,1.2,2.4,2.2,3.7,3c1.3,0.8,2.5,1.2,3.8,1.2c0.8,0,1.7-0.4,2.6-1.1C120.3,69.5,120.8,68.7,120.8,67.8z
		 M90.4,42.6c0,1,0,2.2-0.1,3.5c-0.1,1.3-0.2,2.6-0.3,3.9c-0.1,1.3-0.3,2.5-0.6,3.5c0,0.3-0.2,0.7-0.4,1.2c-0.2,0.5-0.6,0.7-0.9,0.7
		s-0.8-0.1-1.2-0.4c-0.4-0.3-0.8-0.5-1.1-0.8c0.5-2.2,0.9-4.4,1.1-6.7c0.2-2.2,0.4-4.5,0.5-6.8h3.1V42.6z M95,36.4
		c-0.5,0-1,0.2-1.4,0.5c-0.4,0.4-0.7,0.8-0.8,1.3l0,0h-5.4c0-1.5,0.1-3,0.1-4.5v-4.6H95l0.6,4.5c0.1,1,0.2,2,0.4,3
		C95.7,36.5,95.3,36.4,95,36.4z"/>
	<path class="st0" d="M105.5,24.1c0.5,0,0.9-0.1,1.3-0.3c0.4-0.2,1.1-0.6,1.9-1.2c0.8-0.6,1.8-1.3,2.8-2.1c1-0.8,1.9-1.5,2.8-2.2
		c0.8-0.7,1.4-1.2,1.8-1.6c0.4-0.4,0.6-0.8,0.6-1.1l0,0c0-0.3-0.2-0.6-0.6-0.8c-0.4-0.2-0.8-0.4-1.2-0.5s-0.9-0.3-1.3-0.4
		c-0.8-0.3-1.7-0.7-2.6-1c-0.9-0.3-1.8-0.6-2.6-0.8c-0.4,1.7-0.9,3.4-1.4,5.2c-0.5,1.7-1.1,3.4-1.7,5.1c0,0.2-0.1,0.4-0.2,0.6
		c-0.1,0.2-0.1,0.4-0.1,0.7c0,0.2,0.1,0.3,0.2,0.4C105.2,24,105.3,24.1,105.5,24.1z"/>
	<path class="st0" d="M62.2,52.2c-1.3,0.4-2.7,0.7-4,1l3.3,6c2.5-0.8,4.9-1.9,7.3-3.2c2.4-1.3,4.6-2.7,6.7-4.2
		c0.6-0.4,1.2-1,1.8-1.7c0.7-0.7,1.2-1.4,1.6-2c0.1-0.1,0.2-0.2,0.2-0.3c0.1-0.2,0.1-0.3,0.1-0.4l0,0c0-0.2-0.2-0.4-0.5-0.4
		c0,0-0.3,0.1-0.8,0.2c-0.5,0.2-1.1,0.4-1.8,0.6c-0.6,0.2-1.2,0.5-1.8,0.7c-0.5,0.2-0.9,0.3-1.1,0.4V34.7h2.3c0.9,0,1.6-0.2,2.3-0.5
		c0.7-0.3,1-1,1-2c0-0.7-0.2-1.3-0.8-1.8s-1.1-0.8-1.8-0.8c-0.7,0-1.2,0.3-1.6,0.8c-0.4,0.6-0.6,1.1-0.7,1.8h-0.6V17.4h-7.1v14.8
		h-6.3v2.6h6.3v16.3C64.9,51.5,63.5,51.9,62.2,52.2z"/>
	<path class="st0" d="M121.9,66.1c0.6,0,1.3-0.3,2-0.8s1.2-1.1,1.6-1.5c1.6-1.7,3-3.6,4.2-5.7c1.2-2.1,2.1-4.2,2.8-6.4
		c0.1-0.1,0.1-0.3,0.1-0.4c0-0.2,0.1-0.3,0.1-0.4h0c0-0.3-0.1-0.5-0.2-0.5c-0.2-0.1-0.4-0.1-0.6-0.2c-1-0.2-2.1-0.5-3.2-0.9
		c-1.1-0.4-2.1-0.6-3.2-0.8c-0.2,3.6-0.9,7.2-1.8,10.7c-0.2,1-0.5,1.9-0.8,2.9c-0.3,1-0.7,1.9-1.1,2.9c0,0-0.1,0.2-0.2,0.3
		c-0.1,0.2-0.1,0.3-0.1,0.4C121.4,65.9,121.5,66.1,121.9,66.1z"/>
	<path class="st0" d="M128.1,45.8c1.6-0.2,3.3-0.4,4.9-0.7v25.3h6.8V51.1c0.2,0.3,0.5,0.9,0.9,1.8c0.5,0.9,1,1.8,1.6,2.7
		c0.6,0.9,1.2,1.8,1.7,2.5c0.5,0.7,1,1,1.3,1c0.2,0,0.4-0.1,0.6-0.2s0.3-0.4,0.3-0.6V58c0-0.5-0.1-1-0.2-1.5c-0.1-0.5-0.2-1-0.3-1.5
		c-0.2-1.2-0.3-2.4-0.5-3.6c-0.2-1.2-0.3-2.4-0.5-3.5l-4.8,1.9v-6.1c0.9-0.2,1.9-0.7,3-1.3c1.1-0.6,2-1.3,2.9-2.2
		c0.8-0.9,1.2-1.8,1.2-2.9c0-0.9-0.4-1.6-1.1-2.1c-0.7-0.5-1.5-0.8-2.3-0.8c-0.8,0-1.5,0.3-2.2,0.8c-0.7,0.6-1,1.3-1,2.1
		c0,0.7,0.2,1.2,0.6,1.7c0.4,0.5,0.9,0.8,1.5,1c-0.8,0.2-1.8,0.5-3,0.6s-2.4,0.3-3.6,0.4s-2.3,0.1-3.1,0.1h-0.8
		c0.9-0.8,1.8-1.5,2.7-2.3c0.9-0.8,1.8-1.6,2.7-2.4l4.9-4.2c0.3-0.3,0.7-0.6,1.1-0.9c0.4-0.3,0.8-0.6,1-0.9c0.2-0.2,0.3-0.4,0.3-0.7
		c0-0.3-0.2-0.5-0.5-0.6c-0.4-0.2-1-0.3-1.8-0.4c-0.8-0.1-1.4-0.2-1.9-0.2c-1.3-0.2-2.6-0.4-3.9-0.6c-1.3-0.2-2.7-0.4-4-0.6
		c0.4-0.3,1-0.8,1.8-1.5c0.8-0.7,1.8-1.4,2.8-2.3c1-0.9,2-1.7,3-2.6c1-0.9,1.9-1.6,2.6-2.3c0.7-0.7,1.2-1.1,1.3-1.4
		c0.1-0.1,0.1-0.3,0.1-0.4c0-0.3-0.1-0.5-0.2-0.6c-0.2-0.1-0.6-0.3-1.3-0.7c-0.7-0.3-1.6-0.7-2.5-1.1c-0.9-0.4-1.8-0.8-2.6-1.1
		c-0.8-0.3-1.3-0.5-1.6-0.7c-1.3,2-2.7,4.1-4.1,6.1s-2.9,4-4.5,5.8c-0.5,0.6-1,1.3-1.5,1.9c-0.5,0.7-1.1,1.3-1.7,1.9
		c-0.1,0.1-0.2,0.3-0.2,0.4c0,0.3,0,0.5,0.1,0.6c0.1,0.1,0.2,0.2,0.5,0.3c0.5,0.1,1,0.2,1.5,0.2s1,0,1.4,0.1
		c1.1,0.1,2.3,0.2,3.4,0.2c1.2,0.1,2.3,0.2,3.4,0.2c-1.2,1.5-2.3,3.1-3.5,4.7c-1.1,1.6-2.4,3.1-3.7,4.4c-0.5,0.5-1.1,0.9-1.8,1
		c-0.7,0.2-1.3,0.2-2,0.2c-0.2,0-0.4,0-0.6,0c-0.2,0-0.4,0-0.6,0l0.9,5.5C124.8,46.2,126.5,46,128.1,45.8z"/>
	<polygon class="st0" points="177.4,21.2 177.4,21.2 177.4,21.2 	"/>
	<path class="st0" d="M173.9,36.2c0.3,0,0.5-0.1,0.8-0.2s0.4-0.3,0.4-0.6l0,0c0-0.3-0.1-0.5-0.3-0.8c-0.5-0.5-1-1-1.6-1.4
		c-0.6-0.4-1.1-0.9-1.6-1.3c-0.9-0.9-1.8-1.9-2.7-2.9c-0.9-1-1.7-2-2.5-3.1l-5.9,3.8c1.1,0.9,2.5,1.9,4,2.9c1.5,1,3.1,1.9,4.7,2.6
		C170.9,35.9,172.5,36.2,173.9,36.2z"/>
	<path class="st0" d="M162.7,59.7c1.2-1,1.9-2.8,1.9-5.4v-9.4h-17v16.3h9.5C159.6,61.2,161.5,60.7,162.7,59.7z M155.4,58.7h-1.8
		V47.3h4.5v7.9c0,0.8-0.2,1.5-0.8,2.3C156.9,58.3,156.3,58.7,155.4,58.7z"/>
	<path class="st0" d="M146.9,37.2C146.9,37.2,146.9,37.3,146.9,37.2C146.9,37.3,146.9,37.3,146.9,37.2L146.9,37.2z"/>
	<path class="st0" d="M176.8,35.2c-0.7,0.8-1,1.8-1,2.8h-28.1v2.6h19.6v20.2c0,1.5-0.2,2.8-0.8,3.8c-0.5,1-1.7,1.4-3.5,1.4
		c-1.1,0-2.2-0.1-3.3-0.3s-2.2-0.4-3.2-0.7c-0.1,0-0.3-0.1-0.6-0.1c-0.2,0-0.3,0.1-0.3,0.2c0,0.1,0.1,0.2,0.2,0.3
		c0.1,0.1,0.2,0.2,0.2,0.3c0.8,0.8,1.7,1.6,3,2.5c1.2,0.9,2.5,1.7,3.8,2.3c1.3,0.6,2.6,1,3.6,1c2.3,0,4-0.5,5.2-1.6
		c1.2-1,1.9-2.4,2.3-4.1c0.4-1.7,0.6-3.5,0.6-5.3v-20h5.3c0.9,0,1.7-0.3,2.3-0.9c0.7-0.6,1-1.3,1-2.2l0,0c0-1-0.4-1.9-1.2-2.5
		c-0.8-0.7-1.6-1-2.6-1C178.3,34,177.4,34.4,176.8,35.2z"/>
	<path class="st0" d="M152.3,30.1c-1.5,1.6-3.1,3.1-5.1,4.3c-0.2,0.1-0.3,0.2-0.5,0.4c-0.2,0.1-0.2,0.3-0.2,0.5
		c0,0.2,0.1,0.3,0.3,0.4c0.2,0.1,0.3,0.2,0.5,0.2c0.5,0,1-0.1,1.5-0.2c0.5-0.1,1-0.2,1.4-0.4c2.9-0.9,5.5-2.2,7.7-3.9
		c2.3-1.7,3.9-4,5-6.9h11.1c0.8,0,1.6-0.3,2.4-0.9c0.7-0.6,1.1-1.3,1.1-2.2c0-1-0.4-1.8-1.2-2.4c-0.8-0.6-1.6-0.9-2.5-0.9
		c-1,0-1.9,0.3-2.5,1c-0.7,0.7-1.1,1.5-1.2,2.5h-6.2c0.3-1.1,0.5-2.2,0.8-3.3c0.2-1.1,0.4-2.2,0.5-3.3l-8-0.9
		c-0.1,1.2-0.2,2.5-0.2,3.7c-0.1,1.3-0.3,2.5-0.6,3.7h-10.7v3h9.9C154.8,26.5,153.7,28.5,152.3,30.1z"/>
	<path class="st0" d="M236,28.1c1.2-0.2,2.1-0.8,2.8-1.6c0.7-0.8,1-2.2,1-4.1v-7h-48v13.1h40.1C233.5,28.4,234.9,28.3,236,28.1z
		 M205.4,25.9h-6.3v-7.7h6.3V25.9z M218.5,25.9h-6.2v-7.7h6.2V25.9z M231.8,22.3c0,1-0.2,1.8-0.6,2.5c-0.4,0.7-1.1,1.1-2.2,1.1h-3.6
		v-7.7h6.4V22.3z"/>
	<path class="st0" d="M243,63.4c-0.8-0.5-1.5-0.8-2.3-0.8c-0.9,0-1.8,0.3-2.6,0.8c-0.8,0.5-1.2,1.3-1.2,2.4c0,0.1,0,0.1,0,0.1
		c0,0,0,0.1,0,0.2H231v-7.3h5.3c0.8,0,1.5-0.2,2.2-0.5c0.7-0.3,1-1,1-1.9c0-0.7-0.3-1.3-0.9-1.8c-0.6-0.5-1.2-0.8-1.9-0.8
		c-0.7,0-1.4,0.2-1.9,0.8s-0.9,1.1-1,1.8H231v-6h5.3c0.8,0,1.5-0.2,2.2-0.6c0.7-0.4,1-1.1,1-2c0-0.7-0.3-1.3-0.8-1.8
		c-0.5-0.5-1.2-0.7-1.9-0.7c-0.7,0-1.4,0.2-2,0.6c-0.6,0.4-1,1-1,1.8H231v-6h7.7c0.9,0,1.8-0.2,2.5-0.5c0.8-0.3,1.1-1,1.1-2.1
		c0-0.8-0.3-1.5-0.9-2c-0.6-0.5-1.3-0.8-2.2-0.8c-0.8,0-1.5,0.2-2.1,0.8c-0.6,0.5-0.9,1.2-0.9,2.1h-6c0.3-0.2,0.8-0.6,1.4-1
		c0.7-0.5,1.3-1,2-1.6s1.3-1.2,1.8-1.7c0.5-0.5,0.8-1,0.8-1.3c0-0.3-0.2-0.6-0.5-0.8s-0.6-0.3-0.9-0.3l-7-2c-0.3,1.5-0.6,2.9-1,4.4
		s-0.7,2.9-1.1,4.4h-6.7c0.2-0.2,0.6-0.6,1.2-1.2c0.6-0.5,1.2-1.1,1.8-1.8c0.6-0.7,1.2-1.2,1.6-1.8s0.7-1,0.7-1.3
		c0-0.3-0.1-0.5-0.2-0.6c-0.2-0.1-0.4-0.2-0.6-0.2l-6.9-2.6c-1.9,4.9-4.6,9.4-8,13.3c-0.6-0.3-1.1-0.5-1.7-0.5
		c-0.5,0-1.1,0.2-1.6,0.8s-0.8,1-0.8,1.6c0,0.4,0.1,0.7,0.4,1.1c0.2,0.3,0.5,0.6,0.8,0.8c-1,0.3-2.2,0.5-3.5,0.6
		c-1.3,0.1-2.5,0.1-3.6,0.1h-2.2c0.3-0.2,0.9-0.5,1.7-1c0.8-0.5,1.8-1.1,2.9-1.8s2.2-1.4,3.2-2c1-0.7,1.9-1.3,2.7-1.8
		s1.1-0.8,1.2-0.9c0.2-0.2,0.4-0.5,0.4-0.8c0-0.1-0.1-0.2-0.2-0.3c-0.1-0.1-0.2-0.2-0.3-0.2c-0.1,0-0.6-0.1-1.6-0.2
		c-1-0.1-2.1-0.2-3.4-0.3c-1.3-0.1-2.5-0.2-3.6-0.3c-1.1-0.1-1.9-0.2-2.2-0.2c1-0.6,2-1.2,3.1-1.8c1-0.6,2-1.2,3-1.8
		c0.5-0.3,1.1-0.7,1.6-1c0.5-0.3,1-0.7,1.5-1c0.2-0.1,0.3-0.3,0.3-0.6c0-0.2-0.1-0.3-0.3-0.4c-0.4-0.2-0.8-0.4-1.3-0.5
		s-0.9-0.2-1.3-0.4c-0.9-0.3-1.8-0.6-2.6-0.9c-0.8-0.3-1.7-0.6-2.5-0.8c-1.2,1.5-2.4,2.9-3.7,4.2c-1.3,1.4-2.6,2.7-4,3.9
		c-0.3,0.3-0.7,0.6-1.1,0.9c-0.4,0.3-0.8,0.6-1.1,1c-0.1,0.1-0.1,0.2-0.1,0.4c0,0.5,0.2,0.8,0.7,0.9c0.4,0.1,0.8,0.1,1.3,0.1
		c0.5,0,0.9,0,1.3,0c1,0,2,0.1,3,0.1c1,0,2,0.1,3,0.2c-1.3,1.3-2.5,2.5-3.8,3.7c-1.3,1.2-2.6,2.4-4,3.5h-0.4c-0.5,0-1,0-1.5,0
		c-0.5,0-1-0.1-1.5-0.2l0.7,4.4c1.6-0.1,3.3-0.3,4.9-0.5c1.7-0.2,3.3-0.4,4.9-0.6v19h6.7V56.2c0.6,1,1.2,2,2,3
		c0.7,1.1,1.5,2,2.3,2.8c0.2,0.2,0.3,0.3,0.5,0.4c0.2,0.1,0.4,0.2,0.6,0.2c0.3,0,0.6-0.1,0.7-0.3s0.2-0.5,0.2-0.8s-0.1-0.8-0.2-1.4
		s-0.3-1.1-0.4-1.4c-0.2-1.2-0.5-2.3-0.8-3.5c-0.2-1.1-0.5-2.3-0.7-3.5c-0.7,0.3-1.3,0.6-2,1s-1.4,0.7-2.1,1v-4.2
		c1.1-0.3,2.2-0.8,3.3-1.5c1.2-0.7,1.9-1.7,2.1-2.8c0.3-0.2,0.7-0.3,1-0.5c0.3-0.1,0.7-0.3,0.9-0.5v6c0,3,0,6.1,0,9.2
		c0,3.1,0,6.2,0,9.3h28.6c1.2,0,2.2-0.2,2.9-0.7s1.1-1.4,1.1-2.7h0C244.1,64.7,243.7,64,243,63.4z M224,66.1h-5.4v-7.3h5.4V66.1z
		 M224,56.4h-5.4v-6h5.4V56.4z M224,47.9h-5.4v-6h5.4V47.9z"/>
	<path class="st0" d="M186.9,66.9c0.8,0,1.6-0.4,2.6-1.3s2-2,2.9-3.3c1-1.3,1.8-2.6,2.6-3.8c0.8-1.2,1.3-2.1,1.6-2.8
		c0.1-0.2,0.2-0.4,0.2-0.7l0,0c0-0.2-0.1-0.4-0.2-0.5c-0.1-0.1-0.3-0.2-0.5-0.2c-1-0.3-2.1-0.6-3.2-0.8s-2.2-0.4-3.2-0.7
		c-0.2,2.3-0.6,4.5-1.2,6.7c-0.6,2.1-1.3,4.3-2,6.5c0,0.1-0.1,0.2-0.1,0.4C186.4,66.8,186.6,66.9,186.9,66.9z"/>
	<path class="st0" d="M53.5,94.8c1.6-0.7,2.7-1.5,3.4-2.5c0.7-0.9,1.3-2,1.8-3.3c0.5-1.3,0.7-2.4,0.7-3.4c0-0.3-0.2-0.5-0.5-0.5
		h-1.2c-0.3,0-0.5,0.2-0.5,0.5c0,0.9-0.2,1.9-0.6,3c-0.3,0.9-0.8,1.7-1.4,2.4c-0.5,0.7-1.5,1.3-2.7,1.8c-1.3,0.6-2.8,0.9-4.4,0.9
		c-0.3,0-0.7,0-1.1-0.1c-0.4,0-0.8-0.1-1-0.1c-0.3,0-0.6-0.1-1-0.2c-0.4-0.1-0.7-0.2-1-0.2c-0.2,0-0.5-0.1-0.9-0.3
		c-0.4-0.2-0.8-0.2-0.9-0.3c-0.1,0-0.3-0.1-0.9-0.3c-0.5-0.2-0.8-0.3-0.9-0.3c-0.1,0-0.4-0.2-0.9-0.3c-0.5-0.2-1.2-0.5-2-0.8
		c-0.8-0.3-1.8-0.7-2.8-1.1c-1.1-0.4-2.6-0.8-4.4-1.1c-1.9-0.3-4-0.5-6.3-0.5c-2.3,0-4.6,0.4-6.7,1.3c-2.1,0.8-3.8,2-5.1,3.4
		c-1.3,1.4-2.2,3-2.8,4.7c-0.6,1.7-1,3.6-1,5.6c0,2,0.4,3.9,1.2,5.5c0.8,1.6,1.7,2.9,2.8,3.7c1,0.8,2.3,1.5,3.8,2.1
		c1.5,0.6,2.7,0.9,3.7,0.9c0.2,0,0.4-0.2,0.5-0.4l0.3-1.2c0-0.1,0-0.3-0.1-0.4s-0.2-0.2-0.4-0.2l-1-0.1c-1.5-0.2-3.3-0.9-5.2-2.2
		c-0.9-0.6-1.7-1.6-2.3-3c-0.7-1.4-1-3-1-4.8c0-3.2,1-6.1,3-8.5c1-1.2,2.4-2.2,4.2-3c1.8-0.8,3.8-1.2,6-1.2c2.2,0,4.2,0.2,5.9,0.5
		c1.8,0.3,3.1,0.7,4.1,1c0.9,0.3,1.9,0.7,3,1.2c0.5,0.2,1,0.4,1.5,0.6c-2.4,0.7-4.4,2.3-5.8,4.8c-1.6,2.8-3.2,7.6-4.8,14.2
		c-1.5,6.5-3.1,10.9-4.7,13.1c-1.6,2.2-3.6,3.2-6.3,3.2c-1.6,0-3.1-0.2-4.5-0.7c-1.3-0.5-2.4-1.1-3.1-1.8c-0.8-0.7-1.4-1.6-2-2.5
		c-1.3-2.3-1.9-4.7-1.9-7.1V116c0-0.3-0.2-0.5-0.5-0.5H3.5c-0.3,0-0.5,0.2-0.5,0.5c0,0.4-0.1,0.9-0.1,1.3c0,3.5,1.1,6.6,3.2,9.3
		c2.4,3,6.2,4.5,11.1,4.5c4.9,0,8.7-1.3,11.3-3.8c2.6-2.5,4.6-6.4,5.9-11.8c2.6-10.2,5.1-17.1,7.5-20.6c2,0.6,4,0.9,6,0.9
		C50.1,95.8,51.9,95.5,53.5,94.8z"/>
	<path class="st0" d="M61.3,105.4c-0.6-0.8-1.1-1.8-1.6-3.1c-0.5-1.3-0.7-2.7-0.7-4.2c0-0.3-0.2-0.5-0.5-0.5h-1.3
		c-0.2,0-0.3,0.1-0.4,0.2l-0.4,0.6c-0.3,0.4-0.5,1.1-0.8,2c-0.3,0.9-0.4,1.8-0.4,2.7v0c-2.2,2.2-4.5,3.6-7,4.2
		c-0.2,0.1-0.4,0.3-0.4,0.5v1.3c0,0.1,0.1,0.3,0.2,0.4c0.1,0.1,0.3,0.1,0.4,0.1c2.6-0.4,4.9-1.7,7.1-3.6c0.1,0.6,0.3,1.4,0.5,2.4
		c0.4,1.7,0.6,3.3,0.6,4.5c0,5-1.6,7.4-4.9,7.4c-0.9,0-1.7-0.2-2.3-0.5c1.2,0,2.2-0.4,3-1.3c0.8-0.9,1.2-1.9,1.2-3.1
		c0-1.2-0.4-2.3-1.2-3.1c-0.8-0.8-1.8-1.2-3-1.2c-1.2,0-2.3,0.4-3.2,1.2c-0.9,0.8-1.4,2.1-1.4,3.9c0,1.8,0.8,3.3,2.3,4.6
		c1.5,1.3,3.7,2,6.5,2c2.8,0,5.3-0.9,7.3-2.7c2-1.8,3.1-4.1,3.1-6.8c0-1.7-0.3-3.2-0.8-4.6C62.5,107.4,61.9,106.3,61.3,105.4z"/>
	<path class="st0" d="M91,100.3c-0.1-0.1-0.3-0.2-0.5-0.1l-0.7,0.2c-1.2,0.2-3.1,0.3-5.8,0.3c-0.2,0-0.4,0.2-0.5,0.4l-2.3,12.5
		c-0.7,2.1-1.5,3.8-2.5,5c-0.9,1.1-1.8,1.7-2.7,1.7c-1.2,0-1.7-0.6-1.7-1.8c0-1,0.3-3.1,1-6.3c0.7-3.3,1-5.6,1-6.9
		c0-2.3-0.9-5-5.5-5c-1.1,0-2.2,0.2-3.1,0.6c-1,0.5-1.6,1-1.9,1.6c-0.1,0.2,0,0.5,0.1,0.6l0.8,0.7c0.2,0.2,0.5,0.1,0.7-0.1
		c0.6-0.7,1.2-1.1,1.8-1.3c-0.1,1.6-0.5,3.7-1.1,6.5c-0.7,3.3-1,5.4-1,6.6c0,2.3,0.7,4.1,1.9,5.4c1.3,1.3,3.1,2,5.4,2
		c2.7,0,4.9-1.2,6.5-3.6c0.2,0.9,0.7,1.7,1.4,2.2c1,0.9,2.4,1.3,4.1,1.3c1.8,0,3.3-0.7,4.5-2.1c0.1-0.1,0.1-0.2,0.1-0.4
		c0-0.1-0.1-0.3-0.2-0.3l-0.8-0.7c-0.1-0.1-0.2-0.1-0.4-0.1c-0.1,0-0.3,0.1-0.3,0.2c-0.5,0.6-1.1,1-1.7,1.2l3.5-19.9
		C91.2,100.5,91.1,100.4,91,100.3z"/>
	<path class="st0" d="M110.1,107.9c0.7,0.7,1.7,1.1,2.9,1.1c1.2,0,2.3-0.4,3.1-1.2c0.8-0.8,1.2-1.9,1.2-3.1c0-1.3-0.4-2.4-1.3-3.2
		c-0.9-0.9-2.3-1.3-4.4-1.3c-2,0-4,0.7-5.7,1.9c-1,0.7-1.8,1.6-2.6,2.6c0.8-4.2,1.5-8.1,2.2-11.9c0.1-0.7,0.1-1.2,0.1-1.5
		c0-1.7-0.5-3-1.5-3.9c-1-0.9-2.4-1.4-4.2-1.4c-1.8,0-3.3,0.7-4.5,2.1c-0.1,0.1-0.1,0.2-0.1,0.4c0,0.1,0.1,0.3,0.2,0.3l0.8,0.7
		c0.2,0.2,0.5,0.1,0.7-0.1c0.5-0.6,1.1-1,1.7-1.2l-6,33.5c0,0.1,0,0.3,0.1,0.4c0.1,0.1,0.2,0.2,0.4,0.2h6.5c0.2,0,0.4-0.2,0.5-0.4
		l1.9-10c1,0.4,1.8,1.7,2.3,3.8c0.3,1,0.6,2.1,1,3.1c0.4,1.1,1.2,2.1,2.3,2.8c1.1,0.7,2.4,1.1,3.9,1.1c1.4,0,2.6-0.2,3.6-0.6
		c1-0.5,1.6-1,1.9-1.6c0.1-0.2,0-0.5-0.1-0.6l-0.8-0.7c-0.1-0.1-0.2-0.1-0.4-0.1c-0.1,0-0.3,0.1-0.3,0.2c-0.4,0.6-0.9,0.8-1.5,0.8
		c-0.6,0-1-0.3-1.3-0.8c-0.3-0.7-0.5-1.6-0.7-2.7c-0.1-1.1-0.4-2.3-0.7-3.4c-0.4-1.2-1.1-2.2-2.3-3.1c-1.2-0.8-2.8-1.2-4.8-1.2
		c-0.2,0-0.3,0-0.5,0c1.6-3.4,3.7-5.6,6.2-6.3c-0.3,0.6-0.5,1.3-0.5,2.1C109,106.1,109.4,107.2,110.1,107.9z"/>
	<path class="st0" d="M129.9,100.3c-0.1-0.1-0.3-0.2-0.5-0.1l-0.7,0.2c-1.2,0.2-3.2,0.3-5.8,0.3h-2.3c-0.3,0-0.5,0.2-0.5,0.4l-0.1,1
		c0,0.1,0,0.3,0.1,0.4c0.1,0.1,0.2,0.2,0.4,0.2h1.7l-1.7,9.2c-0.9,5.3-0.9,5.8-0.9,6c0,1.5,0.5,2.7,1.6,3.6c1,0.9,2.4,1.4,4.2,1.4
		c1.8,0,3.3-0.7,4.5-2.1c0.1-0.1,0.1-0.2,0.1-0.4c0-0.1-0.1-0.3-0.2-0.3l-0.8-0.7c-0.1-0.1-0.2-0.1-0.4-0.1c-0.1,0-0.3,0.1-0.3,0.2
		c-0.5,0.6-1,1-1.7,1.2l3.6-19.9C130,100.5,130,100.4,129.9,100.3z"/>
	<path class="st0" d="M130.4,89.5c-0.9-0.9-1.9-1.3-3.2-1.3c-1.2,0-2.3,0.4-3.1,1.3c-0.9,0.9-1.3,1.9-1.3,3.2c0,1.2,0.4,2.3,1.3,3.1
		c0.9,0.9,1.9,1.3,3.1,1.3c1.2,0,2.3-0.4,3.2-1.3c0.9-0.9,1.3-1.9,1.3-3.1C131.8,91.4,131.3,90.3,130.4,89.5z"/>
	<path class="st0" d="M147.2,105.4c-0.6-0.8-1.1-1.8-1.6-3.1c-0.5-1.3-0.7-2.7-0.7-4.2c0-0.3-0.2-0.5-0.5-0.5h-1.3
		c-0.2,0-0.3,0.1-0.4,0.2l-0.4,0.6c-0.3,0.4-0.5,1.1-0.8,2c-0.3,0.9-0.4,1.8-0.4,2.7v0c-2.2,2.2-4.5,3.6-7,4.2
		c-0.2,0.1-0.4,0.3-0.4,0.5v1.3c0,0.1,0.1,0.3,0.2,0.4c0.1,0.1,0.3,0.1,0.4,0.1c2.6-0.4,4.9-1.7,7.1-3.6c0.1,0.6,0.3,1.4,0.5,2.4
		c0.4,1.7,0.6,3.3,0.6,4.5c0,5-1.6,7.4-4.9,7.4c-0.9,0-1.7-0.2-2.3-0.5c1.2,0,2.2-0.4,3-1.3c0.8-0.9,1.2-1.9,1.2-3.1
		c0-1.2-0.4-2.3-1.2-3.1c-0.8-0.8-1.8-1.2-3-1.2c-1.2,0-2.3,0.4-3.2,1.2c-0.9,0.8-1.4,2.1-1.4,3.9c0,1.8,0.8,3.3,2.3,4.6
		c1.5,1.3,3.7,2,6.5,2c2.8,0,5.3-0.9,7.3-2.7c2-1.8,3.1-4.1,3.1-6.8c0-1.7-0.3-3.2-0.8-4.6C148.4,107.4,147.9,106.3,147.2,105.4z"/>
	<path class="st0" d="M175.9,119.3c-0.2-0.2-0.5-0.1-0.7,0.1c-0.6,0.7-1.2,1.1-1.8,1.3c0.1-1.6,0.5-3.7,1.1-6.5c0.7-3.3,1-5.4,1-6.6
		c0-2.3-0.7-4.1-1.9-5.4c-1.3-1.3-3.1-2-5.4-2c-2.4,0-4.4,1-5.9,2.9l1.8-10.2c0.1-0.7,0.1-1.2,0.1-1.5c0-1.7-0.5-3-1.5-3.9
		c-1-0.9-2.4-1.4-4.2-1.4c-1.8,0-3.3,0.7-4.5,2.1c-0.1,0.1-0.1,0.2-0.1,0.4c0,0.1,0.1,0.3,0.2,0.3l0.8,0.7c0.2,0.2,0.5,0.1,0.7-0.1
		c0.5-0.6,1.1-1,1.7-1.2l-5.9,33.5c0,0.1,0,0.3,0.1,0.4c0.1,0.1,0.2,0.2,0.4,0.2h6.5c0.2,0,0.5-0.2,0.5-0.4l1.8-10.2
		c0.7-2.8,1.6-5,2.7-6.6c1-1.5,2.1-2.3,3.2-2.3c1.2,0,1.7,0.5,1.7,1.8c0,1-0.3,3.1-1,6.3c-0.7,3.3-1,5.6-1,6.9c0,2.3,0.9,5,5.5,5
		c1.1,0,2.2-0.2,3.1-0.6c1-0.5,1.6-1,1.9-1.6c0.1-0.2,0-0.5-0.1-0.6L175.9,119.3z"/>
	<path class="st0" d="M189.6,100.3c-0.1-0.1-0.3-0.2-0.5-0.1l-0.7,0.2c-1.2,0.2-3.2,0.3-5.8,0.3h-2.3c-0.3,0-0.5,0.2-0.5,0.4l-0.1,1
		c0,0.1,0,0.3,0.1,0.4c0.1,0.1,0.2,0.2,0.4,0.2h1.7l-1.7,9.2c-0.9,5.3-0.9,5.8-0.9,6c0,1.5,0.5,2.7,1.6,3.6c1,0.9,2.4,1.4,4.2,1.4
		c1.8,0,3.3-0.7,4.5-2.1c0.1-0.1,0.1-0.2,0.1-0.4c0-0.1-0.1-0.3-0.2-0.3l-0.8-0.7c-0.1-0.1-0.2-0.1-0.4-0.1c-0.1,0-0.3,0.1-0.3,0.2
		c-0.5,0.6-1,1-1.7,1.2l3.6-19.9C189.7,100.5,189.7,100.4,189.6,100.3z"/>
	<path class="st0" d="M187,88.1c-1.2,0-2.3,0.4-3.1,1.3c-0.9,0.9-1.3,1.9-1.3,3.2c0,1.2,0.4,2.3,1.3,3.1c0.9,0.9,1.9,1.3,3.1,1.3
		c1.2,0,2.3-0.4,3.2-1.3c0.9-0.9,1.3-1.9,1.3-3.1c0-1.2-0.4-2.3-1.3-3.2C189.3,88.6,188.2,88.1,187,88.1z"/>
	<path class="st0" d="M208.1,100.1c-2.4,0-4.4,1.3-6,3.9c-0.2-1-0.7-1.9-1.4-2.5c-1-0.9-2.4-1.4-4.2-1.4c-1.8,0-3.3,0.7-4.5,2.1
		c-0.1,0.1-0.1,0.2-0.1,0.4c0,0.1,0.1,0.3,0.2,0.3l0.8,0.7c0.2,0.2,0.5,0.1,0.7-0.1c0.5-0.6,1.1-1,1.7-1.2l-3.5,19.4
		c0,0.1,0,0.3,0.1,0.4c0.1,0.1,0.2,0.2,0.4,0.2h6.5c0.2,0,0.4-0.2,0.5-0.4l2-10.8c0,0,0,0,0-0.1c0.3-1.2,1-2.7,1.9-4.5
		c0.6-1.2,1.3-2.2,2.2-3c0.8-0.7,1.7-1.1,2.5-1.1c0.8,0,1.4,0.2,1.8,0.5c0.4,0.3,0.6,1.1,0.6,2.2c0,1.1-0.8,2.8-2.3,5
		c-1.6,2.4-2.4,4.3-2.4,5.7c0,0.3,0.2,0.5,0.5,0.5h1.3c0.3,0,0.5-0.2,0.5-0.5c0-0.8,0.4-1.8,1.1-3c0.8-1.2,1.6-2.5,2.4-3.9
		c0.8-1.4,1.3-2.8,1.3-4.1C212.8,101.8,211.2,100.1,208.1,100.1z"/>
	<path class="st0" d="M226.4,100.1c-2.7,0-5,0.4-6.8,1.2c-1.8,0.8-3.2,2-4.2,3.5c-0.9,1.4-1.5,2.9-1.9,4.5c-0.4,1.5-0.6,3.4-0.6,5.6
		c0,2.3,0.8,4.2,2.3,5.6c1.5,1.5,3.8,2.2,6.7,2.2c4.3,0,7.6-1.3,9.9-4c2.3-2.6,3.4-6.1,3.4-10.3c0-2.6-0.8-4.6-2.4-6.1
		C231.4,100.9,229.2,100.1,226.4,100.1z M226.2,116.4c-1.2,2.7-2.6,4.1-4.1,4.1c-0.5,0-2,0-2-3.9c0-4.4,0.7-7.9,2-10.6
		c1.3-2.6,2.6-3.9,4.1-3.9c0.5,0,2,0,2,4.1C228.1,110.2,227.5,113.6,226.2,116.4z"/>
	<path class="st0" d="M307.8,126.8h-1.4c-0.2,0-0.4,0.1-0.5,0.4c-0.3,1.1-0.9,2-1.7,2.6c-0.8,0.6-1.7,1-2.9,1
		c-1.1,0-2.1-0.5-3.1-1.5c-1.1-1.1-2.4-3.1-4-6c-1.6-2.9-4.1-7.9-7.5-14.9c1-1.4,2.2-2.9,3.4-4.4c5.5-7.1,10.9-11,16.2-11.7
		c-0.2,0.5-0.5,1.1-0.8,1.9c-0.5,1.1-1,2.4-1.5,3.7c-0.5,1.4-0.8,2.9-0.8,4.6c0,0.3,0.2,0.5,0.5,0.5h1.2c0.3,0,0.5-0.2,0.5-0.5
		c0-1.6,0.8-4.2,2.3-7.9c1.6-3.8,2.3-6.8,2.3-8.9c0-0.3-0.2-0.5-0.5-0.5h-1.3c-0.3,0-0.5,0.2-0.5,0.5c0,1.4-0.2,2.8-0.7,4.2
		c-3.6,0.2-7,1.3-9.9,3.4c-3,2.1-5.8,5-8.5,8.5l-7.8,10.1c-0.1,0.1-0.1,0.3-0.1,0.5l6,12.6c1.3,2.8,3,5,4.9,6.4
		c1.9,1.4,4.4,2.1,7.4,2.1c4.8,0,7.8-2,9-6c0-0.2,0-0.3-0.1-0.4C308.1,126.9,307.9,126.8,307.8,126.8z"/>
	<path class="st0" d="M290.1,94.1c0.3,0,0.5-0.2,0.5-0.5v-1.1c0-0.3-0.2-0.5-0.5-0.5c-4.5,0-8.6-0.7-12.5-2.1
		c-3.4-1.1-6.6-1.7-9.6-1.7c-3.8,0-6.9,1.2-9.3,3.7c-2.4,2.5-3.6,5.7-3.6,9.6c0,0.3,0.2,0.5,0.5,0.5h1.2c0.3,0,0.5-0.2,0.5-0.5
		c0-3.3,1-6,3-8c2-2,4.6-3.1,7.8-3.1c3.1,0,6.1,0.6,8.7,1.6c-3.1,12.6-5.2,21.5-6.5,26.7c-1.3,5.2-2.6,8.7-4,10.5
		c-1.3,1.7-3.6,2.6-7,2.6c-3.3,0-6-1.1-7.9-3.2c-2-2.2-2.9-4.9-2.9-8.1c0-0.5,0-1,0.1-1.5c0-0.3-0.2-0.5-0.4-0.5l-1.2-0.2
		c-0.1,0-0.3,0-0.4,0.1s-0.2,0.2-0.2,0.4c0,0.6-0.1,1.2-0.1,1.8c0,3.7,1.1,6.8,3.4,9.4c1.3,1.5,3,2.6,4.9,3.4c1.9,0.8,4,1.2,6.2,1.2
		c2.2,0,4.2-0.4,6.1-1.2c1.9-0.8,3.5-1.7,4.7-2.9c1.3-1.2,2.4-2.7,3.4-4.6c1-1.8,1.8-3.6,2.3-5.4c0.6-1.7,1.6-5.7,3.1-11.9
		c1.4-5.9,2.6-10.9,3.4-14.9C285.5,94,287.6,94.1,290.1,94.1z"/>
	<path class="st0" d="M315.8,88.1c-1.2,0-2.3,0.4-3.1,1.3c-0.9,0.9-1.3,1.9-1.3,3.2c0,1.2,0.4,2.3,1.3,3.1c0.9,0.9,1.9,1.3,3.1,1.3
		c1.2,0,2.3-0.4,3.2-1.3c0.9-0.9,1.3-1.9,1.3-3.1c0-1.2-0.4-2.3-1.3-3.2C318,88.6,317,88.1,315.8,88.1z"/>
	<path class="st0" d="M318.3,100.3c-0.1-0.1-0.3-0.2-0.5-0.1l-0.7,0.2c-1.2,0.2-3.2,0.3-5.8,0.3H309c-0.3,0-0.5,0.2-0.5,0.4l-0.1,1
		c0,0.1,0,0.3,0.1,0.4c0.1,0.1,0.2,0.2,0.4,0.2h1.7l-1.7,9.2c-0.9,5.3-0.9,5.8-0.9,6c0,1.5,0.5,2.7,1.6,3.6c1,0.9,2.4,1.4,4.2,1.4
		c1.8,0,3.3-0.7,4.5-2.1c0.1-0.1,0.1-0.2,0.1-0.4c0-0.1-0.1-0.3-0.2-0.3l-0.8-0.7c-0.1-0.1-0.2-0.1-0.4-0.1c-0.1,0-0.3,0.1-0.3,0.2
		c-0.5,0.6-1,1-1.7,1.2l3.6-19.9C318.5,100.5,318.5,100.4,318.3,100.3z"/>
	<path class="st0" d="M336.9,100.1c-2.4,0-4.4,1.3-6,3.9c-0.2-1-0.7-1.9-1.4-2.5c-1-0.9-2.4-1.4-4.2-1.4c-1.8,0-3.3,0.7-4.5,2.1
		c-0.1,0.1-0.1,0.2-0.1,0.4c0,0.1,0.1,0.3,0.2,0.3l0.8,0.7c0.2,0.2,0.5,0.1,0.7-0.1c0.5-0.6,1-1,1.7-1.2l-3.5,19.4
		c0,0.1,0,0.3,0.1,0.4c0.1,0.1,0.2,0.2,0.4,0.2h6.5c0.2,0,0.4-0.2,0.5-0.4l2-10.8c0,0,0,0,0-0.1c0.3-1.1,1-2.7,1.9-4.5
		c0.6-1.2,1.3-2.2,2.2-3c0.8-0.8,1.7-1.1,2.5-1.1c0.8,0,1.4,0.2,1.8,0.5c0.4,0.3,0.6,1.1,0.6,2.2c0,1.1-0.8,2.8-2.3,5
		c-1.6,2.4-2.4,4.3-2.4,5.7c0,0.3,0.2,0.5,0.5,0.5h1.3c0.3,0,0.5-0.2,0.5-0.5c0-0.8,0.4-1.8,1.1-3c0.8-1.2,1.6-2.5,2.4-3.9
		c0.8-1.4,1.3-2.8,1.3-4.1C341.6,101.8,340,100.1,336.9,100.1z"/>
	<path class="st0" d="M366.1,100.3c-0.1-0.1-0.3-0.2-0.5-0.1l-0.7,0.2c-1.3,0.2-3.3,0.3-5.9,0.3c-0.2,0-0.4,0.2-0.5,0.4
		c-0.1,0.6-0.2,1.1-0.3,1.7c-1.1-1.7-2.8-2.6-5.1-2.6c-3.4,0-6.2,1.2-8.3,3.7c-2.1,2.4-3.2,5.8-3.2,10.1c0,2.8,0.8,5,2.3,6.5
		c1.5,1.6,3.6,2.4,6.2,2.4c2.3,0,4.2-1.1,5.8-3.4c0.5,1.7,2,3.4,5.5,3.4c1.8,0,3.3-0.7,4.5-2.1c0.1-0.1,0.1-0.2,0.1-0.4
		c0-0.1-0.1-0.3-0.2-0.3l-0.8-0.7c-0.1-0.1-0.2-0.1-0.4-0.1c-0.1,0-0.3,0.1-0.3,0.2c-0.5,0.6-1,1-1.7,1.2l3.6-19.9
		C366.3,100.5,366.2,100.4,366.1,100.3z M357.4,107.1c-0.2,1.2-0.5,2.6-0.8,4.4c-0.3,1.8-0.5,2.9-0.6,3.3c-0.7,1.8-1.6,3.3-2.8,4.5
		c-0.8,0.8-1.6,1.3-2.3,1.3c-0.7,0-1.2-0.2-1.5-0.7c0,0,0,0,0,0c-0.2-0.4-0.5-1.2-0.5-3.1c0-3.4,0.5-6.7,1.6-9.8
		c1-2.9,2.3-4.4,3.8-4.4c0.8,0,1.5,0.4,2,1.3C356.9,104.7,357.3,105.8,357.4,107.1z"/>
</g>
</svg>
