<?xml version="1.0" encoding="UTF-8"?>
<svg id="_图层_2" data-name="图层 2" xmlns="http://www.w3.org/2000/svg" viewBox="0 0 631.75 148.87">
  <defs>
    <style>
      .cls-1 {
        fill: none;
      }

      .cls-1, .cls-2 {
        stroke: #61595c;
        stroke-linecap: round;
        stroke-linejoin: round;
        stroke-width: 4px;
      }

      .cls-2 {
        fill: #61595c;
      }
    </style>
  </defs>
  <g id="_图层_10" data-name="图层 10">
    <g>
      <path class="cls-1" d="M130.77,146.87v-16.1h16.1v-32.19H66.38v16.1h-16.1v16.1h-16.1v16.1H18.1v-16.1h16.1v-16.1h16.1V2h112.67V146.87h-32.19ZM66.38,50.29h80.48V18.1H66.38V50.29Zm0,32.19h80.48v-16.1H66.38v16.1Z"/>
      <path class="cls-1" d="M179.06,50.29v-16.1h16.1V2h16.1V34.19h64.39V2h16.1V34.19h32.19v16.1h-32.19V114.67h16.1v16.1h16.1v16.1h-16.1v-16.1h-16.1v16.1h-16.1v-16.1h16.1v-16.1h-16.1v16.1h-48.29v-16.1h-32.19V50.29h-16.1Zm0,80.48v-16.1h16.1v16.1h-16.1Zm48.29-32.19V50.29h-16.1v48.29h16.1Zm-16.1,48.29v-16.1h16.1v16.1h-16.1Zm32.19-80.48h32.19v-16.1h-32.19v16.1Zm16.1,48.29v-32.19h-16.1v32.19h16.1Zm48.29-96.58V2h16.1V18.1h-16.1Zm0,96.58v-32.19h16.1v32.19h-16.1Z"/>
      <polygon class="cls-1" points="356.11 82.48 356.11 66.39 340.02 66.39 340.02 34.19 356.11 34.19 356.11 50.29 388.31 50.29 388.31 66.39 372.21 66.39 372.21 82.48 356.11 82.48"/>
      <polygon class="cls-1" points="388.31 114.67 340.02 114.67 340.02 82.48 356.11 82.48 356.11 98.58 388.31 98.58 388.31 114.67"/>
      <rect class="cls-1" x="340.02" y="130.77" width="48.29" height="16.1"/>
      <rect class="cls-1" x="356.11" y="18.1" width="16.1" height="16.1"/>
      <rect class="cls-1" x="372.21" y="2" width="16.1" height="16.1"/>
      <polygon class="cls-1" points="452.69 146.87 452.69 130.77 468.79 130.77 468.79 82.48 388.31 82.48 388.31 66.39 404.4 66.39 404.4 50.29 420.5 50.29 420.5 66.39 468.79 66.39 468.79 50.29 484.88 50.29 484.88 146.87 452.69 146.87"/>
      <polygon class="cls-1" points="404.4 34.19 404.4 18.1 436.59 18.1 436.59 2 452.69 2 452.69 18.1 484.88 18.1 484.88 34.19 468.79 34.19 468.79 50.29 452.69 50.29 452.69 34.19 436.59 34.19 436.59 50.29 420.5 50.29 420.5 34.19 404.4 34.19"/>
      <path class="cls-1" d="M404.4,82.48v48.29h48.29v-48.29h-48.29Zm32.19,32.19h-16.1v-16.1h16.1v16.1Z"/>
      <path class="cls-1" d="M500.98,114.67v-16.1h16.1v16.1h-16.1Zm112.67-16.1v-16.1h-64.39v16.1h-32.19v-16.1h16.1V50.29h-16.1V2h112.67V50.29h-80.48v16.1h80.48v32.19h-16.1Zm-96.58,48.29v-16.1h48.29v16.1h-48.29Zm32.19-112.67V18.1h-16.1v16.1h16.1Zm16.1,80.48h-16.1v-16.1h16.1v16.1Zm16.1-80.48V18.1h-16.1v16.1h16.1Zm16.1,96.58h-32.19v-16.1h32.19v16.1Zm16.1-96.58V18.1h-16.1v16.1h16.1Zm-16.1,80.48v-16.1h16.1v16.1h-16.1Z"/>
    </g>
    <g>
      <path class="cls-2" d="M114.67,146.87v-16.1h16.1v-32.19H50.29v16.1h-16.1v16.1H18.1v16.1H2v-16.1H18.1v-16.1h16.1V2h112.67V146.87h-32.19ZM50.29,50.29h80.48V18.1H50.29V50.29Zm0,32.19h80.48v-16.1H50.29v16.1Z"/>
      <path class="cls-2" d="M162.96,50.29v-16.1h16.1V2h16.1V34.19h64.39V2h16.1V34.19h32.19v16.1h-32.19V114.67h16.1v16.1h16.1v16.1h-16.1v-16.1h-16.1v16.1h-16.1v-16.1h16.1v-16.1h-16.1v16.1h-48.29v-16.1h-32.19V50.29h-16.1Zm0,80.48v-16.1h16.1v16.1h-16.1Zm48.29-32.19V50.29h-16.1v48.29h16.1Zm-16.1,48.29v-16.1h16.1v16.1h-16.1Zm32.19-80.48h32.19v-16.1h-32.19v16.1Zm16.1,48.29v-32.19h-16.1v32.19h16.1Zm48.29-96.58V2h16.1V18.1h-16.1Zm0,96.58v-32.19h16.1v32.19h-16.1Z"/>
      <polygon class="cls-2" points="340.02 82.48 340.02 66.39 323.92 66.39 323.92 34.19 340.02 34.19 340.02 50.29 372.21 50.29 372.21 66.39 356.11 66.39 356.11 82.48 340.02 82.48"/>
      <polygon class="cls-2" points="372.21 114.67 323.92 114.67 323.92 82.48 340.02 82.48 340.02 98.58 372.21 98.58 372.21 114.67"/>
      <rect class="cls-2" x="323.92" y="130.77" width="48.29" height="16.1"/>
      <rect class="cls-2" x="340.02" y="18.1" width="16.1" height="16.1"/>
      <rect class="cls-2" x="356.11" y="2" width="16.1" height="16.1"/>
      <polygon class="cls-2" points="436.6 146.87 436.6 130.77 452.69 130.77 452.69 82.48 372.21 82.48 372.21 66.39 388.31 66.39 388.31 50.29 404.4 50.29 404.4 66.39 452.69 66.39 452.69 50.29 468.79 50.29 468.79 146.87 436.6 146.87"/>
      <polygon class="cls-2" points="388.31 34.19 388.31 18.1 420.5 18.1 420.5 2 436.6 2 436.6 18.1 468.79 18.1 468.79 34.19 452.69 34.19 452.69 50.29 436.6 50.29 436.6 34.19 420.5 34.19 420.5 50.29 404.4 50.29 404.4 34.19 388.31 34.19"/>
      <path class="cls-2" d="M388.31,82.48v48.29h48.29v-48.29h-48.29Zm32.19,32.19h-16.1v-16.1h16.1v16.1Z"/>
      <path class="cls-2" d="M484.88,114.67v-16.1h16.1v16.1h-16.1Zm112.67-16.1v-16.1h-64.39v16.1h-32.19v-16.1h16.1V50.29h-16.1V2h112.67V50.29h-80.48v16.1h80.48v32.19h-16.1Zm-96.58,48.29v-16.1h48.29v16.1h-48.29Zm32.19-112.67V18.1h-16.1v16.1h16.1Zm16.1,80.48h-16.1v-16.1h16.1v16.1Zm16.1-80.48V18.1h-16.1v16.1h16.1Zm16.1,96.58h-32.19v-16.1h32.19v16.1Zm16.1-96.58V18.1h-16.1v16.1h16.1Zm-16.1,80.48v-16.1h16.1v16.1h-16.1Z"/>
    </g>
  </g>
</svg>